<svg width="26" height="26" viewBox="0 0 26 26" fill="none" xmlns="http://www.w3.org/2000/svg">
<path d="M22.7549 19.1615L14.495 4.70663C14.3149 4.38883 14.0537 4.1245 13.7381 3.94059C13.4225 3.75669 13.0637 3.65979 12.6984 3.65979C12.3331 3.65979 11.9744 3.75669 11.6588 3.94059C11.3432 4.1245 11.082 4.38883 10.9019 4.70663L2.64194 19.1615C2.45989 19.4768 2.36443 19.8346 2.36524 20.1987C2.36605 20.5627 2.46309 20.9201 2.64653 21.2346C2.82997 21.5491 3.09329 21.8095 3.4098 21.9894C3.72631 22.1693 4.08475 22.2623 4.4488 22.259H20.9687C21.331 22.2586 21.6868 22.163 22.0004 21.9816C22.3141 21.8002 22.5744 21.5395 22.7554 21.2256C22.9364 20.9118 23.0317 20.5558 23.0316 20.1935C23.0315 19.8312 22.9361 19.4753 22.7549 19.1615Z" stroke="#DC2626" stroke-width="2.06499" stroke-linecap="round" stroke-linejoin="round"/>
<path d="M12.7087 9.86909V13.9991" stroke="#DC2626" stroke-width="2.06499" stroke-linecap="round" stroke-linejoin="round"/>
<path d="M12.7087 18.129H12.7195" stroke="#DC2626" stroke-width="2.06499" stroke-linecap="round" stroke-linejoin="round"/>
</svg>
