<svg width="25" height="24" viewBox="0 0 25 24" fill="none" xmlns="http://www.w3.org/2000/svg">
<path d="M12.5342 8.16667C17.4477 8.16667 21.4308 6.83896 21.4308 5.20115C21.4308 3.56334 17.4477 2.23563 12.5342 2.23563C7.62082 2.23563 3.6377 3.56334 3.6377 5.20115C3.6377 6.83896 7.62082 8.16667 12.5342 8.16667Z" stroke="#9333EA" stroke-width="1.97701" stroke-linecap="round" stroke-linejoin="round"/>
<path d="M3.6377 5.20115V19.0402C3.6377 19.8267 4.57501 20.581 6.24343 21.1372C7.91186 21.6933 10.1747 22.0057 12.5342 22.0057C14.8938 22.0057 17.1566 21.6933 18.8251 21.1372C20.4935 20.581 21.4308 19.8267 21.4308 19.0402V5.20115" stroke="#9333EA" stroke-width="1.97701" stroke-linecap="round" stroke-linejoin="round"/>
<path d="M3.6377 12.1207C3.6377 12.9072 4.57501 13.6615 6.24343 14.2176C7.91186 14.7738 10.1747 15.0862 12.5342 15.0862C14.8938 15.0862 17.1566 14.7738 18.8251 14.2176C20.4935 13.6615 21.4308 12.9072 21.4308 12.1207" stroke="#9333EA" stroke-width="1.97701" stroke-linecap="round" stroke-linejoin="round"/>
</svg>
