<svg width="26" height="25" viewBox="0 0 26 25" fill="none" xmlns="http://www.w3.org/2000/svg">
<path d="M17.2471 21.8077V19.7428C17.2471 18.6474 16.812 17.5969 16.0375 16.8224C15.263 16.0479 14.2125 15.6128 13.1172 15.6128H6.92221C5.82687 15.6128 4.7764 16.0479 4.00188 16.8224C3.22736 17.5969 2.79224 18.6474 2.79224 19.7428V21.8077" stroke="#16A34A" stroke-width="2.06499" stroke-linecap="round" stroke-linejoin="round"/>
<path d="M10.0196 11.4828C12.3005 11.4828 14.1496 9.63376 14.1496 7.35284C14.1496 5.07192 12.3005 3.22287 10.0196 3.22287C7.7387 3.22287 5.88965 5.07192 5.88965 7.35284C5.88965 9.63376 7.7387 11.4828 10.0196 11.4828Z" stroke="#16A34A" stroke-width="2.06499" stroke-linecap="round" stroke-linejoin="round"/>
<path d="M23.442 21.8078V19.7428C23.4413 18.8277 23.1367 17.9388 22.5761 17.2155C22.0154 16.4923 21.2305 15.9758 20.3445 15.747" stroke="#16A34A" stroke-width="2.06499" stroke-linecap="round" stroke-linejoin="round"/>
<path d="M17.2468 3.35709C18.1352 3.58455 18.9226 4.10121 19.4849 4.82562C20.0472 5.55003 20.3524 6.44098 20.3524 7.35801C20.3524 8.27504 20.0472 9.16598 19.4849 9.89039C18.9226 10.6148 18.1352 11.1315 17.2468 11.3589" stroke="#16A34A" stroke-width="2.06499" stroke-linecap="round" stroke-linejoin="round"/>
</svg>
