<svg width="3978" height="3007" viewBox="0 0 3978 3007" fill="none" xmlns="http://www.w3.org/2000/svg">
<path fill-rule="evenodd" clip-rule="evenodd" d="M2956.54 1534.82H858.258C858.258 2242.04 1266.83 2761.42 1894.05 2774.92C2532.91 2788.66 2971.13 2316.01 2956.54 1534.82ZM1978.14 2132.05C2212.35 2132.05 2336.95 1993.62 2331.06 1534.82H1500.09C1455.17 1885.94 1621.77 2132.05 1978.14 2132.05Z" fill="#393942"/>
<ellipse cx="1944.87" cy="617.336" rx="1944.87" ry="617.336" transform="matrix(-0.868566 0.495573 -0.485565 -0.874201 3978.01 1079.35)" fill="#393942"/>
<path d="M2822.01 528.867C1949.92 904.725 1771.55 1270.08 996.201 1674.42C954.996 1695.91 905.992 1665.77 905.992 1619.3L905.992 1595.21L905.993 1471.54C1577.57 891.405 1970.08 563.14 2884.2 458.86C2884.2 458.86 2673.55 528.411 2719.39 528.866C2765.23 529.321 2822.01 528.867 2822.01 528.867Z" fill="white"/>
<path d="M475.238 2272.16C345.601 2038.76 910.562 1494.33 1725.33 1029.45C2456.82 518.864 3048.59 427.5 3309.5 503.464C3364.98 519.618 3415.35 557.875 3430.31 614.204C3506.76 902.021 2945.45 1459.94 2203.39 1883.34C1388.62 2348.22 604.875 2505.56 475.238 2272.16Z" fill="white"/>
<path d="M1545.32 570.077H902.111V1836.34C902.111 1986.41 948.043 2142.74 1064.99 2283.44C1064.99 2283.44 1276.78 2229.32 1403.53 2189.32C1496.42 2160 1628.17 2108 1674.52 2089.44C1682.69 2086.17 1684.98 2075.71 1679.32 2068.97C1626.26 2005.78 1601.55 1928.36 1564.26 1836.34C1524.24 1737.57 1545.32 570.077 1545.32 570.077Z" fill="#1C22BA"/>
<path d="M2342.95 570.077V1722.76C2342.95 1722.76 2560.95 1593.6 2693.41 1499.97C2796.7 1426.96 2950.62 1303.02 2950.62 1303.02V570.077H2342.95Z" fill="#1C4BBA"/>
</svg>
