<svg width="17" height="17" viewBox="0 0 17 17" fill="none" xmlns="http://www.w3.org/2000/svg">
<path d="M13.5856 6.89861C13.5856 10.2273 9.89295 13.6939 8.65295 14.7646C8.53743 14.8515 8.39681 14.8984 8.25228 14.8984C8.10775 14.8984 7.96713 14.8515 7.85161 14.7646C6.61161 13.6939 2.91895 10.2273 2.91895 6.89861C2.91895 5.48412 3.48085 4.12757 4.48104 3.12737C5.48124 2.12718 6.83779 1.56528 8.25228 1.56528C9.66677 1.56528 11.0233 2.12718 12.0235 3.12737C13.0237 4.12757 13.5856 5.48412 13.5856 6.89861Z" stroke="#78716C" stroke-width="1.33333" stroke-linecap="round" stroke-linejoin="round"/>
<path d="M8.25244 8.89859C9.35701 8.89859 10.2524 8.00316 10.2524 6.89859C10.2524 5.79402 9.35701 4.89859 8.25244 4.89859C7.14787 4.89859 6.25244 5.79402 6.25244 6.89859C6.25244 8.00316 7.14787 8.89859 8.25244 8.89859Z" stroke="#78716C" stroke-width="1.33333" stroke-linecap="round" stroke-linejoin="round"/>
</svg>
