<svg width="33" height="33" viewBox="0 0 33 33" fill="none" xmlns="http://www.w3.org/2000/svg">
<path d="M29.3658 24.2319L18.6992 5.56527C18.4666 5.15488 18.1293 4.81352 17.7217 4.57603C17.3141 4.33854 16.8509 4.21341 16.3792 4.21341C15.9074 4.21341 15.4442 4.33854 15.0366 4.57603C14.629 4.81352 14.2917 5.15488 14.0592 5.56527L3.39248 24.2319C3.15739 24.6391 3.03412 25.1011 3.03516 25.5713C3.0362 26.0414 3.16152 26.5029 3.39841 26.909C3.6353 27.3151 3.97535 27.6514 4.38408 27.8837C4.79281 28.116 5.25569 28.2362 5.72582 28.2319H27.0592C27.527 28.2315 27.9865 28.1079 28.3915 27.8737C28.7965 27.6394 29.1328 27.3027 29.3665 26.8974C29.6002 26.4921 29.7232 26.0325 29.7231 25.5646C29.723 25.0967 29.5998 24.6371 29.3658 24.2319Z" stroke="#EF4444" stroke-width="2.66667" stroke-linecap="round" stroke-linejoin="round"/>
<path d="M16.3926 12.2319V17.5653" stroke="#EF4444" stroke-width="2.66667" stroke-linecap="round" stroke-linejoin="round"/>
<path d="M16.3926 22.8986H16.4059" stroke="#EF4444" stroke-width="2.66667" stroke-linecap="round" stroke-linejoin="round"/>
</svg>
