<svg width="33" height="33" viewBox="0 0 33 33" fill="none" xmlns="http://www.w3.org/2000/svg">
<path d="M27.0594 13.5653C27.0594 20.2226 19.6741 27.1559 17.1941 29.2973C16.963 29.471 16.6818 29.5649 16.3927 29.5649C16.1037 29.5649 15.8224 29.471 15.5914 29.2973C13.1114 27.1559 5.72607 20.2226 5.72607 13.5653C5.72607 10.7363 6.84988 8.02319 8.85027 6.0228C10.8507 4.02241 13.5638 2.89861 16.3927 2.89861C19.2217 2.89861 21.9348 4.02241 23.9352 6.0228C25.9356 8.02319 27.0594 10.7363 27.0594 13.5653Z" stroke="#3B82F6" stroke-width="2.66667" stroke-linecap="round" stroke-linejoin="round"/>
<path d="M16.3926 17.5653C18.6017 17.5653 20.3926 15.7744 20.3926 13.5653C20.3926 11.3561 18.6017 9.56526 16.3926 9.56526C14.1834 9.56526 12.3926 11.3561 12.3926 13.5653C12.3926 15.7744 14.1834 17.5653 16.3926 17.5653Z" stroke="#3B82F6" stroke-width="2.66667" stroke-linecap="round" stroke-linejoin="round"/>
</svg>
